<svg xmlns="http://www.w3.org/2000/svg" width="64.336" height="43.429" viewBox="0 0 64.336 43.429">
  <g id="Group_493" data-name="Group 493" transform="translate(-136 -6621.051)">
    <path id="Icon_zocial-email" data-name="Icon zocial-email" d="M.072,43.65V7.915q0-.062.186-1.179L21.29,24.728.32,44.891A5.258,5.258,0,0,1,.072,43.65Zm2.792-39.4a2.674,2.674,0,0,1,1.055-.186H60.562a3.513,3.513,0,0,1,1.117.186L40.585,22.308l-2.792,2.233L32.271,29.07,26.75,24.541l-2.792-2.233ZM2.926,47.31,24.082,27.023l8.189,6.638,8.189-6.638L61.617,47.31a2.979,2.979,0,0,1-1.055.186H3.919a2.81,2.81,0,0,1-.993-.186ZM43.252,24.728,64.222,6.736a3.7,3.7,0,0,1,.186,1.179V43.65a4.755,4.755,0,0,1-.186,1.241Z" transform="translate(135.928 6616.983)" fill="#fff"/>
  </g>
</svg>
