<svg xmlns="http://www.w3.org/2000/svg" width="48.531" height="48.531" viewBox="0 0 48.531 48.531">
  <g id="Group_493" data-name="Group 493" transform="translate(-152.99 -6615.051)">
    <path id="Icon_awesome-phone-alt" data-name="Icon awesome-phone-alt" d="M47.147,34.294l-10.616-4.55a2.275,2.275,0,0,0-2.654.654l-4.7,5.744a35.134,35.134,0,0,1-16.8-16.8l5.744-4.7a2.269,2.269,0,0,0,.654-2.654L14.228,1.375A2.29,2.29,0,0,0,11.621.058L1.763,2.333A2.275,2.275,0,0,0,0,4.55,43.977,43.977,0,0,0,43.982,48.532,2.275,2.275,0,0,0,46.2,46.769l2.275-9.858a2.3,2.3,0,0,0-1.328-2.616Z" transform="translate(152.99 6615.05)" fill="#fff"/>
  </g>
</svg>
