<svg xmlns="http://www.w3.org/2000/svg" width="243.909" height="65.429" viewBox="0 0 243.909 65.429">
  <g id="Group_509" data-name="Group 509" transform="translate(-190.479 -341.988)">
    <g id="Group_6" data-name="Group 6" transform="translate(190.479 341.988)">
      <g id="Group_5" data-name="Group 5">
        <g id="Group_4" data-name="Group 4">
          <g id="Group_1" data-name="Group 1" transform="translate(48.173 47.695)">
            <path id="Path_1" data-name="Path 1" d="M284.776,444.3a8.866,8.866,0,1,1,6.265-2.594A8.812,8.812,0,0,1,284.776,444.3Z" transform="translate(-275.904 -426.565)" fill="#096cc6"/>
          </g>
          <g id="Group_2" data-name="Group 2" transform="translate(0 0.409)">
            <path id="Path_2" data-name="Path 2" d="M199.351,360.449a8.867,8.867,0,1,1,6.266-2.6A8.815,8.815,0,0,1,199.351,360.449Z" transform="translate(-190.479 -342.714)" fill="#096cc6"/>
          </g>
          <path id="Path_3" data-name="Path 3" d="M284.078,359.988a8.865,8.865,0,1,1,6.267-2.592A8.811,8.811,0,0,1,284.078,359.988Z" transform="translate(-227.429 -342.103)" fill="#096cc6"/>
          <g id="Group_3" data-name="Group 3" transform="translate(0.232 23.942)">
            <path id="Path_4" data-name="Path 4" d="M199.761,425.931a8.865,8.865,0,0,1-6.27-15.137,8.071,8.071,0,0,1,1.249-1.015c.151-.106.291-.189.435-.277.328-.188.655-.36.96-.5.166-.074.337-.151.517-.219a9.069,9.069,0,0,1,1.081-.32l.225-.062c.046-.012.09-.028.136-.038l1.974-.135c.25.011.518.043.8.079l.112.016c.067.008.158.015.249.02l.08.006.09.017h.078c.144.006.289.008.431.008a13.091,13.091,0,0,0,12.91-13.255l0-.1-.019-.1a2.321,2.321,0,0,1-.03-.285c-.008-.114-.017-.227-.032-.341l-.022-.2c-.019-.17-.038-.337-.05-.507l.151-1.98c.01-.05.028-.095.041-.143l.036-.122a8.745,8.745,0,0,1,.33-1.116,4.714,4.714,0,0,1,.218-.516,9.909,9.909,0,0,1,.514-.983c.083-.14.165-.282.261-.42a8.7,8.7,0,0,1,1.022-1.259,8.867,8.867,0,1,1,12.54,12.541,8.519,8.519,0,0,1-1.25,1.017c-.148.1-.288.184-.427.267a10.11,10.11,0,0,1-.96.507c-.173.078-.346.157-.514.219a8.358,8.358,0,0,1-1.077.319l-.213.059c-.048.014-.1.029-.143.041l-1.993.142c-.234-.01-.478-.041-.738-.074l-.177-.022c-.059-.01-.152-.016-.246-.021l-.07-.007-.1-.02h-.08c-.145-.005-.289-.007-.433-.007a13.09,13.09,0,0,0-12.909,13.258l0,.1.019.1c.018.1.022.191.03.287.008.114.018.227.032.339,0,.067.017.19.033.309a3.745,3.745,0,0,1,.033.4v.048l-.143,1.9c-.009.039-.073.258-.09.327a9.253,9.253,0,0,1-.325,1.1c-.067.182-.134.338-.212.5-.154.337-.321.66-.511.988-.084.134-.183.292-.283.443a8.68,8.68,0,0,1-7.273,3.829Z" transform="translate(-190.891 -384.444)" fill="#096cc6"/>
          </g>
          <path id="Path_5" data-name="Path 5" d="M242.224,425.932a8.866,8.866,0,0,1-6.28-15.132,8.725,8.725,0,0,1,1.26-1.026c.131-.089.273-.175.421-.261a9.763,9.763,0,0,1,.964-.509c.173-.079.342-.157.514-.221a8.26,8.26,0,0,1,1.068-.311s.312-.091.352-.1l2-.147c.237.011.492.045.759.079l.148.02c.1.01.181.017.264.019.033,0,.065,0,.1.006l.063.008.084.008c.147,0,.3.008.442.008a13.084,13.084,0,0,0,12.892-13.253l-.012-.413-.037-.046c0-.014,0-.03,0-.046-.006-.1-.011-.193-.021-.291l-.033-.284c-.018-.156-.039-.31-.045-.467l.138-1.92c.011-.047.08-.284.1-.356a9.368,9.368,0,0,1,.324-1.092c.063-.179.14-.342.218-.514a10.593,10.593,0,0,1,.512-.97l.038-.064c.068-.116.134-.232.215-.344a8.687,8.687,0,0,1,1.026-1.268,8.869,8.869,0,1,1,12.544,12.542,8.987,8.987,0,0,1-1.256,1.016c-.1.069-.2.127-.292.184l-.155.1a10.154,10.154,0,0,1-.934.489c-.178.079-.345.156-.521.222a8.894,8.894,0,0,1-1.084.319c-.086.02-.157.042-.226.063-.048.012-.093.027-.14.038l-1.971.136c-.288-.012-.6-.055-.9-.095-.1-.012-.183-.016-.262-.021a.839.839,0,0,1-.09-.006l-.167-.017c-.147-.006-.293-.008-.438-.008a13.074,13.074,0,0,0-12.892,13.257l0,.1.02.1a2.5,2.5,0,0,1,.03.3c.007.1.015.206.026.306.007.084.019.191.03.3.018.149.036.3.04.451l-.146,1.946c-.011.043-.086.305-.086.305a9.089,9.089,0,0,1-.325,1.113c-.059.16-.13.314-.2.474l-.025.056a9.693,9.693,0,0,1-.5.937c-.09.152-.18.3-.274.44a9.065,9.065,0,0,1-1.025,1.259,8.786,8.786,0,0,1-6.256,2.588Z" transform="translate(-209.174 -360.503)" fill="#096cc6"/>
          <path id="Path_6" data-name="Path 6" d="M199.766,383.474a8.826,8.826,0,0,1-5.021-16.155c.134-.09.285-.183.436-.273a10.308,10.308,0,0,1,.954-.5c.171-.079.342-.156.523-.223a8.5,8.5,0,0,1,1.06-.309l.226-.063c.042-.012.081-.027.122-.036l2.007-.144c.261.011.543.048.838.088l.062.008c.1.011.183.015.264.019a.768.768,0,0,1,.086.006l.086.015.081,0c.148,0,.3.007.442.007a13.077,13.077,0,0,0,12.888-13.257l0-.1-.02-.1a2.613,2.613,0,0,1-.03-.326c-.006-.089-.011-.179-.021-.272l-.03-.273a4.91,4.91,0,0,1-.045-.492l.134-1.863.012-.043v-.037c.011-.043.083-.29.083-.29a9.423,9.423,0,0,1,.326-1.125c.063-.167.142-.335.22-.508a9.943,9.943,0,0,1,.509-.97l.03-.051c.077-.128.152-.255.239-.383a8.706,8.706,0,0,1,1.012-1.244,8.869,8.869,0,1,1,12.544,12.539,8.449,8.449,0,0,1-1.249,1.012c-.136.1-.253.165-.374.236l-.066.038a10.078,10.078,0,0,1-.948.5c-.179.082-.346.158-.516.221a8.607,8.607,0,0,1-1.084.32c-.083.021-.159.042-.235.063-.046.012-.092.028-.139.038l-1.966.138c-.249-.012-.515-.045-.795-.081l-.12-.015c-.091-.011-.175-.015-.256-.02a.977.977,0,0,1-.1-.007l-.066-.008-.086-.007c-.147-.006-.293-.008-.44-.008a13.08,13.08,0,0,0-12.894,13.257l0,.1.018.1a2.18,2.18,0,0,1,.032.3c.007.1.015.206.026.311.008.082.021.188.033.293.016.148.036.294.038.441l-.142,1.933c-.011.05-.027.1-.043.153l-.049.173a8.842,8.842,0,0,1-.321,1.113c-.063.168-.144.341-.226.518a9.57,9.57,0,0,1-.5.955c-.091.154-.177.3-.269.434a8.561,8.561,0,0,1-1.019,1.254,8.8,8.8,0,0,1-6.264,2.593Z" transform="translate(-190.66 -341.988)" fill="#096cc6"/>
        </g>
      </g>
    </g>
    <g id="Group_7" data-name="Group 7" transform="translate(265.855 362.39)">
      <path id="Path_7" data-name="Path 7" d="M330.571,383.441h-6.429v-4.522h18.3v4.522h-6.5v19.29h-5.37Z" transform="translate(-324.142 -378.495)" fill="#333"/>
      <path id="Path_8" data-name="Path 8" d="M375.857,392.661H367.1v5.653h9.786v4.416H361.726V378.919h14.661v4.416H367.1v4.946h8.761Z" transform="translate(-340.531 -378.495)" fill="#333"/>
      <path id="Path_9" data-name="Path 9" d="M411.717,401.821a15.784,15.784,0,0,1-6.076,1.025c-8.232,0-12.471-5.158-12.471-11.941,0-8.126,5.794-12.612,13-12.612a13.491,13.491,0,0,1,5.865,1.06l-1.131,4.24a11.342,11.342,0,0,0-4.522-.883c-4.239,0-7.56,2.579-7.56,7.878,0,4.769,2.826,7.773,7.6,7.773a12.827,12.827,0,0,0,4.522-.777Z" transform="translate(-354.243 -378.222)" fill="#333"/>
      <path id="Path_10" data-name="Path 10" d="M437.815,378.919v9.15h8.867v-9.15h5.37v23.812h-5.37v-9.963h-8.867v9.963h-5.37V378.919Z" transform="translate(-371.37 -378.495)" fill="#333"/>
      <path id="Path_11" data-name="Path 11" d="M476.106,378.919h3.108v21.232h10.175v2.579H476.106Z" transform="translate(-390.41 -378.495)" fill="#333"/>
      <path id="Path_12" data-name="Path 12" d="M522.548,390.25c0,8.161-4.982,12.542-11.058,12.542-6.324,0-10.7-4.911-10.7-12.118,0-7.56,4.663-12.506,11.022-12.506C518.344,378.167,522.548,383.149,522.548,390.25Zm-18.512.353c0,5.123,2.756,9.68,7.63,9.68s7.632-4.487,7.632-9.892c0-4.769-2.473-9.715-7.6-9.715S504.036,385.409,504.036,390.6Z" transform="translate(-401.172 -378.167)" fill="#333"/>
      <path id="Path_13" data-name="Path 13" d="M563.516,401.479a21.535,21.535,0,0,1-7.348,1.307c-3.6,0-6.571-.919-8.9-3.144a12.246,12.246,0,0,1-3.321-8.867c0-7.1,4.911-12.295,12.895-12.295a14.921,14.921,0,0,1,5.97,1.1l-.777,2.508a11.818,11.818,0,0,0-5.264-1.025c-5.794,0-9.574,3.6-9.574,9.574,0,6.042,3.6,9.609,9.185,9.609a10.031,10.031,0,0,0,4.1-.636v-7.1h-4.8v-2.473h7.843Z" transform="translate(-419.992 -378.303)" fill="#333"/>
      <path id="Path_14" data-name="Path 14" d="M606.171,390.25c0,8.161-4.982,12.542-11.058,12.542-6.324,0-10.7-4.911-10.7-12.118,0-7.56,4.664-12.506,11.023-12.506C601.967,378.167,606.171,383.149,606.171,390.25Zm-18.512.353c0,5.123,2.755,9.68,7.63,9.68s7.631-4.487,7.631-9.892c0-4.769-2.473-9.715-7.6-9.715S587.659,385.409,587.659,390.6Z" transform="translate(-437.638 -378.167)" fill="#333"/>
    </g>
  </g>
</svg>
