<svg xmlns="http://www.w3.org/2000/svg" width="80" height="63" viewBox="0 0 80 63">
  <g id="crown" transform="translate(0 -6.095)">
    <g id="Row_File" data-name="Row File">
      <g id="Group_337" data-name="Group 337">
        <g id="Group_334" data-name="Group 334">
          <path id="Path_666" data-name="Path 666" d="M40,33.124a.227.227,0,0,1,.187.1l6.835,9.808a.236.236,0,0,1,0,.269l-6.835,9.808a.228.228,0,0,1-.375,0L32.978,43.3a.236.236,0,0,1,0-.269l6.835-9.808a.228.228,0,0,1,.187-.1m0-1.354a1.555,1.555,0,0,0-1.275.67l-6.835,9.808a1.609,1.609,0,0,0,0,1.835l6.835,9.808a1.549,1.549,0,0,0,2.551,0l6.835-9.808a1.609,1.609,0,0,0,0-1.835l-6.835-9.808A1.557,1.557,0,0,0,40,31.769Z" fill="#0865c2"/>
        </g>
        <g id="Group_335" data-name="Group 335">
          <path id="Path_667" data-name="Path 667" d="M59.308,40.466a.225.225,0,0,1,.1.023.233.233,0,0,1,.127.171l1.173,6.97a.236.236,0,0,1-.115.243l-6.082,3.44a.223.223,0,0,1-.111.03.23.23,0,0,1-.226-.194L53,44.179a.235.235,0,0,1,.115-.242L59.2,40.5a.227.227,0,0,1,.111-.029m0-1.354a1.544,1.544,0,0,0-.76.2l-6.081,3.441a1.594,1.594,0,0,0-.78,1.654l1.173,6.971a1.584,1.584,0,0,0,.865,1.164,1.541,1.541,0,0,0,1.435-.045l6.081-3.441a1.6,1.6,0,0,0,.78-1.654l-1.173-6.971a1.583,1.583,0,0,0-.865-1.163,1.539,1.539,0,0,0-.675-.156Z" fill="#1c2530"/>
        </g>
        <g id="Group_336" data-name="Group 336">
          <path id="Path_668" data-name="Path 668" d="M20.691,40.466a.23.23,0,0,1,.111.029l6.082,3.441a.234.234,0,0,1,.114.242l-1.173,6.971a.232.232,0,0,1-.127.171.218.218,0,0,1-.1.023.223.223,0,0,1-.111-.03l-6.082-3.44a.236.236,0,0,1-.115-.243l1.174-6.97a.23.23,0,0,1,.127-.171.219.219,0,0,1,.1-.023m0-1.354a1.539,1.539,0,0,0-.675.156,1.585,1.585,0,0,0-.865,1.163L17.977,47.4a1.6,1.6,0,0,0,.78,1.654L24.839,52.5a1.54,1.54,0,0,0,1.435.045,1.584,1.584,0,0,0,.865-1.164l1.174-6.971a1.6,1.6,0,0,0-.78-1.654h0l-6.082-3.441a1.544,1.544,0,0,0-.76-.2Z" fill="#1c2530"/>
        </g>
      </g>
      <path id="Path_669" data-name="Path 669" d="M72.005,19.561a8.06,8.06,0,0,0-8,8.122,8.327,8.327,0,0,0,.129,1.417L51.5,32.644l-6.889-11.8a8.144,8.144,0,0,0,3.383-6.627,8,8,0,1,0-15.99,0A8.145,8.145,0,0,0,35.4,20.852L28.5,32.644,15.905,29.1,15.549,30.4l13.579,3.822L36.55,21.535a7.808,7.808,0,0,0,6.911-.006l7.413,12.7,13.608-3.817a8.066,8.066,0,0,0,4.885,4.934,98.834,98.834,0,0,0-3.453,22.389H14.069a99.456,99.456,0,0,0-3.407-22.4A8.136,8.136,0,0,0,8,19.561,8.123,8.123,0,0,0,8,35.8a7.888,7.888,0,0,0,1.377-.129,98.1,98.1,0,0,1,3.363,22.056h-.958a1.942,1.942,0,0,0-2,1.873v7.618a1.941,1.941,0,0,0,2,1.872H35V67.74H11.777a.615.615,0,0,1-.667-.517V59.6a.615.615,0,0,1,.667-.518H68.14a.615.615,0,0,1,.667.518v7.618a.615.615,0,0,1-.667.517H45v1.354H68.14a1.941,1.941,0,0,0,2-1.872V59.6a1.942,1.942,0,0,0-2-1.873h-.893a97.513,97.513,0,0,1,3.411-22.051,7.882,7.882,0,0,0,1.347.124,8.123,8.123,0,0,0,0-16.244ZM33.338,14.216A6.663,6.663,0,1,1,40,20.984,6.722,6.722,0,0,1,33.338,14.216Zm-32,13.467A6.723,6.723,0,0,1,8,20.915,6.768,6.768,0,0,1,8,34.45,6.723,6.723,0,0,1,1.333,27.683ZM72.005,34.45a6.768,6.768,0,1,1,6.662-6.768A6.723,6.723,0,0,1,72.005,34.45Z" fill="#0865c2"/>
      <g id="Group_338" data-name="Group 338">
        <ellipse id="Ellipse_40" data-name="Ellipse 40" cx="1.563" cy="1.587" rx="1.563" ry="1.587" transform="translate(38.437 65.903)" fill="#1c2530"/>
      </g>
    </g>
  </g>
</svg>
