<svg xmlns="http://www.w3.org/2000/svg" width="80" height="61" viewBox="0 0 80 61">
  <g id="Happy_client" data-name="Happy client" transform="translate(0 -9.497)">
    <g id="Group_350" data-name="Group 350">
      <g id="Row_file" data-name="Row file">
        <path id="Path_675" data-name="Path 675" d="M49.769,9.5A30.24,30.24,0,0,0,20.148,33.664h1.369a28.906,28.906,0,1,1,17.27,32.782v1.441A30.228,30.228,0,1,0,49.769,9.5Z" fill="#0865c2"/>
        <path id="Path_676" data-name="Path 676" d="M62.622,46.441A16.629,16.629,0,0,1,37.3,45.909l-.947.947a17.962,17.962,0,0,0,27.225.519Z" fill="#1c2530"/>
        <g id="Group_347" data-name="Group 347">
          <path id="Path_677" data-name="Path 677" d="M42.491,31.954A1.094,1.094,0,1,1,41.4,33.048a1.1,1.1,0,0,1,1.094-1.094m0-1.333a2.427,2.427,0,1,0,2.428,2.427,2.427,2.427,0,0,0-2.428-2.427Z" fill="#1c2530"/>
        </g>
        <g id="Group_348" data-name="Group 348">
          <path id="Path_678" data-name="Path 678" d="M57.095,31.954A1.094,1.094,0,1,1,56,33.048a1.1,1.1,0,0,1,1.094-1.094m0-1.333a2.427,2.427,0,1,0,2.427,2.427,2.427,2.427,0,0,0-2.427-2.427Z" fill="#1c2530"/>
        </g>
      </g>
      <g id="Group_349" data-name="Group 349">
        <path id="Path_679" data-name="Path 679" d="M14.565,48.627a32.48,32.48,0,0,0,1.7-9.539A3.213,3.213,0,0,1,17.8,37.445a2.781,2.781,0,0,1,2.278.217,3.927,3.927,0,0,1,1.911,2.81V49.7a.667.667,0,0,0,1.333,0l0-8.811a4.831,4.831,0,0,0-.163-1.352,5.393,5.393,0,0,0-2.475-3.066,4.062,4.062,0,0,0-3.385-.261,4.713,4.713,0,0,0-2.315,2.5l-.038.185a35.942,35.942,0,0,1-1.367,8.719,2.647,2.647,0,0,1-2.524,1.8H10.6v1.333h.853A3.335,3.335,0,0,0,14.565,48.627Z" fill="#0865c2"/>
        <path id="Path_680" data-name="Path 680" d="M0,68.5a2,2,0,0,0,2,2H8.6a2,2,0,0,0,2-2V57.574a.666.666,0,0,0-.667-.667h0a.666.666,0,0,0-.667.667V68.3a.867.867,0,0,1-.867.867H5.968V57.354a.667.667,0,0,0-.667-.667h0a.667.667,0,0,0-.667.667v11.81H2.2a.867.867,0,0,1-.867-.867V49.926a.867.867,0,0,1,.867-.867H8.4a.867.867,0,0,1,.867.867v4.107a.666.666,0,0,0,.667.667h0a.667.667,0,0,0,.667-.667V49.726a2,2,0,0,0-2-2H2a2,2,0,0,0-2,2Z" fill="#0865c2"/>
        <path id="Path_681" data-name="Path 681" d="M35.9,48.7a2,2,0,0,0-2-2H25.048a.667.667,0,1,0,0,1.333H33.7a.867.867,0,0,1,.867.867v2.374a.867.867,0,0,1-.867.867H25.048a.667.667,0,1,0,0,1.333h8.719a.8.8,0,0,1,.8.8v2.532a.8.8,0,0,1-.8.8H25.048a.667.667,0,1,0,0,1.333h8.719a.8.8,0,0,1,.8.8v2.773a.8.8,0,0,1-.8.8H25.048a.667.667,0,1,0,0,1.333h8.719a.8.8,0,0,1,.8.8v2.919a.8.8,0,0,1-.8.8H17.57l-3.317-2.926H10.6V67.57h3.216L17.063,70.5H33.9a2,2,0,0,0,2-2V65.311a1.984,1.984,0,0,0-.519-1.333,1.985,1.985,0,0,0,.519-1.333V59.6a1.984,1.984,0,0,0-.519-1.333,1.986,1.986,0,0,0,.519-1.333v-2.8a1.985,1.985,0,0,0-.519-1.333,1.985,1.985,0,0,0,.519-1.333Z" fill="#0865c2"/>
      </g>
    </g>
  </g>
</svg>
