<svg xmlns="http://www.w3.org/2000/svg" width="80" height="77" viewBox="0 0 80 77">
  <g id="Project_completed" data-name="Project completed" transform="translate(0 -1.403)">
    <g id="Row_file" data-name="Row file">
      <g id="Group_339" data-name="Group 339">
        <path id="Path_670" data-name="Path 670" d="M77.333,2.733a1.333,1.333,0,0,1,1.333,1.33v56.1a1.333,1.333,0,0,1-1.333,1.33H2.667a1.333,1.333,0,0,1-1.333-1.33V4.063a1.333,1.333,0,0,1,1.333-1.33H77.333m0-1.33H2.667A2.664,2.664,0,0,0,0,4.063v56.1a2.664,2.664,0,0,0,2.667,2.66H77.333A2.664,2.664,0,0,0,80,60.165V4.063A2.664,2.664,0,0,0,77.333,1.4Z" fill="#0865c2"/>
      </g>
      <g id="Group_340" data-name="Group 340">
        <path id="Path_671" data-name="Path 671" d="M30.741,18.47A1.257,1.257,0,0,1,32,19.721v1.444l.88.317c.308.11.619.237.923.377l.845.388.657-.657.349-.35a1.272,1.272,0,0,1,.9-.368,1.248,1.248,0,0,1,.887.364l2.665,2.652a1.258,1.258,0,0,1,0,1.776l-.358.357-.658.656.389.842c.139.3.267.611.379.92l.319.877h1.443a1.259,1.259,0,0,1,1.26,1.256v3.757a1.258,1.258,0,0,1-1.26,1.252h-1.5l-.326.859c-.11.29-.233.579-.368.861l-.4.849.666.664.417.416a1.258,1.258,0,0,1,0,1.775l-2.677,2.662a1.26,1.26,0,0,1-1.773,0l-.494-.492-.65-.647-.838.374c-.263.118-.532.226-.8.321L32,43.533v1.64a1.257,1.257,0,0,1-1.261,1.252H26.972a1.257,1.257,0,0,1-1.261-1.252v-1.7l-.858-.327c-.251-.1-.5-.2-.743-.311l-.843-.388-.657.654-.559.557a1.257,1.257,0,0,1-.893.366,1.228,1.228,0,0,1-.888-.37L17.6,41a1.25,1.25,0,0,1,0-1.768l.557-.555.658-.656-.39-.842c-.112-.241-.217-.491-.313-.742l-.327-.857h-1.7a1.258,1.258,0,0,1-1.26-1.252V30.571a1.259,1.259,0,0,1,1.26-1.256h1.645l.318-.879c.1-.267.205-.535.322-.794l.376-.835-.648-.648-.5-.5a1.251,1.251,0,0,1,.006-1.766l2.666-2.657a1.268,1.268,0,0,1,1.775,0l.425.424.665.663.849-.4c.283-.134.573-.257.862-.366l.861-.325v-1.5a1.257,1.257,0,0,1,1.261-1.251h3.769m0-1.33H26.972a2.59,2.59,0,0,0-2.594,2.581V20.3q-.487.184-.962.409l-.425-.424a2.6,2.6,0,0,0-3.66,0L16.665,22.95a2.58,2.58,0,0,0,0,3.652l.5.5c-.131.291-.251.588-.36.887h-.709A2.592,2.592,0,0,0,13.5,30.571v3.757a2.591,2.591,0,0,0,2.593,2.582h.785q.16.419.348.825l-.557.555a2.579,2.579,0,0,0,0,3.654L19.328,44.6a2.569,2.569,0,0,0,1.828.759,2.6,2.6,0,0,0,1.838-.756l.558-.555c.271.124.547.24.826.346v.781a2.59,2.59,0,0,0,2.594,2.582h3.769a2.59,2.59,0,0,0,2.594-2.582v-.706q.448-.162.889-.359l.494.492a2.577,2.577,0,0,0,1.833.756h.005a2.565,2.565,0,0,0,1.824-.755l2.671-2.658a2.587,2.587,0,0,0,0-3.654l-.421-.42c.151-.316.287-.637.411-.961h.581a2.591,2.591,0,0,0,2.593-2.582V30.571a2.592,2.592,0,0,0-2.593-2.586h-.508q-.188-.519-.422-1.024l.359-.358a2.586,2.586,0,0,0,0-3.654l-2.67-2.657a2.579,2.579,0,0,0-1.828-.752,2.606,2.606,0,0,0-1.837.754l-.355.355q-.506-.232-1.027-.42v-.509a2.59,2.59,0,0,0-2.594-2.581Z" fill="#1c2530"/>
      </g>
      <g id="Group_341" data-name="Group 341">
        <path id="Path_672" data-name="Path 672" d="M28.859,29.041a3.408,3.408,0,1,1-3.422,3.406,3.416,3.416,0,0,1,3.422-3.406m0-1.33a4.738,4.738,0,1,0,4.751,4.736,4.751,4.751,0,0,0-4.751-4.736Z" fill="#0865c2"/>
      </g>
      <g id="Group_342" data-name="Group 342">
        <rect id="Rectangle_282" data-name="Rectangle 282" width="1.333" height="8.498" transform="translate(48.858 37.167)" fill="#1c2530"/>
      </g>
      <g id="Group_343" data-name="Group 343">
        <rect id="Rectangle_283" data-name="Rectangle 283" width="1.333" height="14.976" transform="translate(56.76 30.85)" fill="#0865c2"/>
      </g>
      <g id="Group_344" data-name="Group 344">
        <rect id="Rectangle_284" data-name="Rectangle 284" width="1.333" height="24.202" transform="translate(64.661 21.624)" fill="#1c2530"/>
      </g>
      <g id="Group_345" data-name="Group 345">
        <rect id="Rectangle_285" data-name="Rectangle 285" width="6.118" height="1.333" transform="matrix(0.201, -0.98, 0.98, 0.2, 27.812, 68.265)" fill="#0865c2"/>
      </g>
      <g id="Group_346" data-name="Group 346">
        <rect id="Rectangle_286" data-name="Rectangle 286" width="1.333" height="6.118" transform="matrix(0.98, -0.2, 0.2, 0.98, 51.322, 62.538)" fill="#0865c2"/>
      </g>
    </g>
    <path id="Path_673" data-name="Path 673" d="M56.988,67.92H45v1.33H56.988a4.667,4.667,0,0,1,4.667,4.655v3.167h-41.7V73.906a4.666,4.666,0,0,1,4.667-4.655H41.667V67.92H24.625a5.992,5.992,0,0,0-6,5.985v3.167a1.332,1.332,0,0,0,1.333,1.33h41.7a1.332,1.332,0,0,0,1.333-1.33V73.906A5.993,5.993,0,0,0,56.988,67.92Z" fill="#0865c2"/>
    <path id="Path_674" data-name="Path 674" d="M70.977,7.786H9.018a2.664,2.664,0,0,0-2.667,2.66V53.782a2.664,2.664,0,0,0,2.667,2.66H21.667v-1.33H9.018a1.333,1.333,0,0,1-1.333-1.33V10.446a1.333,1.333,0,0,1,1.333-1.33H70.977a1.333,1.333,0,0,1,1.333,1.33V53.782a1.333,1.333,0,0,1-1.333,1.33H25v1.33H70.977a2.664,2.664,0,0,0,2.667-2.66V10.446A2.664,2.664,0,0,0,70.977,7.786Z" fill="#0865c2"/>
  </g>
</svg>
