<svg xmlns="http://www.w3.org/2000/svg" width="47" height="70" viewBox="0 0 47 70">
  <g id="Figma_copy" data-name="Figma copy" transform="translate(-11.759)">
    <path id="Path_599" data-name="Path 599" d="M23.51,70A11.708,11.708,0,0,0,35.259,58.333V46.667H23.51A11.667,11.667,0,1,0,23.51,70Z" fill="#0acf83"/>
    <path id="Path_600" data-name="Path 600" d="M11.759,35A11.709,11.709,0,0,1,23.51,23.333H35.259V46.667H23.51A11.709,11.709,0,0,1,11.759,35Z" fill="#a259ff"/>
    <path id="Path_601" data-name="Path 601" d="M11.759,11.667A11.709,11.709,0,0,1,23.5,0H35.25V23.333H23.51A11.708,11.708,0,0,1,11.759,11.667Z" fill="#f24e1e"/>
    <path id="Path_602" data-name="Path 602" d="M35.259,0h11.75a11.667,11.667,0,1,1,0,23.333H35.259Z" fill="#ff7262"/>
    <path id="Path_603" data-name="Path 603" d="M58.76,35A11.751,11.751,0,1,1,47.01,23.335,11.708,11.708,0,0,1,58.76,35Z" fill="#1abcfe"/>
  </g>
</svg>
