<svg xmlns="http://www.w3.org/2000/svg" xmlns:xlink="http://www.w3.org/1999/xlink" width="150" height="150" viewBox="0 0 150 150">
  <defs>
    <clipPath id="clip-path">
      <rect id="crop" width="150" height="150" transform="translate(2.908 7.084)" fill="none"/>
    </clipPath>
  </defs>
  <g id="Vector_Smart_Object" data-name="Vector Smart Object" transform="translate(-2.908 -7.084)" clip-path="url(#clip-path)">
    <g id="Only_stroke" data-name="Only stroke">
      <g id="Group_295" data-name="Group 295">
        <rect id="Rectangle_255" data-name="Rectangle 255" width="142.969" height="1.571" transform="translate(2.908 30.646)" fill="#0865c2"/>
      </g>
      <g id="Group_296" data-name="Group 296">
        <path id="Path_638" data-name="Path 638" d="M18.2,15.723a.776.776,0,0,1,.765.785v6.283a.775.775,0,0,1-.765.785H12.082a.776.776,0,0,1-.765-.785V16.509a.776.776,0,0,1,.765-.785H18.2m0-1.571H12.082a2.325,2.325,0,0,0-2.294,2.356v6.283a2.325,2.325,0,0,0,2.294,2.356H18.2a2.325,2.325,0,0,0,2.294-2.356V16.509A2.325,2.325,0,0,0,18.2,14.152Z" fill="#231f20"/>
      </g>
      <g id="Group_297" data-name="Group 297">
        <path id="Path_639" data-name="Path 639" d="M32.725,15.723a.776.776,0,0,1,.765.785v6.283a.775.775,0,0,1-.765.785H26.608a.776.776,0,0,1-.765-.785V16.509a.776.776,0,0,1,.765-.785h6.116m0-1.571H26.608a2.325,2.325,0,0,0-2.294,2.356v6.283a2.325,2.325,0,0,0,2.294,2.356h6.116a2.325,2.325,0,0,0,2.294-2.356V16.509a2.325,2.325,0,0,0-2.294-2.356Z" fill="#231f20"/>
      </g>
      <g id="Group_298" data-name="Group 298">
        <path id="Path_640" data-name="Path 640" d="M47.251,15.723a.776.776,0,0,1,.765.785v6.283a.775.775,0,0,1-.765.785H41.134a.776.776,0,0,1-.765-.785V16.509a.776.776,0,0,1,.765-.785h6.116m0-1.571H41.134a2.325,2.325,0,0,0-2.294,2.356v6.283a2.325,2.325,0,0,0,2.294,2.356h6.116a2.325,2.325,0,0,0,2.294-2.356V16.509a2.325,2.325,0,0,0-2.294-2.356Z" fill="#231f20"/>
      </g>
      <g id="Group_299" data-name="Group 299">
        <path id="Path_641" data-name="Path 641" d="M88.271,45.265a5.958,5.958,0,0,1,5.869,6.03V91.833a5.958,5.958,0,0,1-5.869,6.03H78.406a1.55,1.55,0,0,0-1.529,1.571v3.712A4.794,4.794,0,0,1,72.154,108a4.628,4.628,0,0,1-2.622-.815L56.311,98.127a1.5,1.5,0,0,0-.848-.264H19.216a5.958,5.958,0,0,1-5.869-6.03V51.3a5.958,5.958,0,0,1,5.869-6.03H88.271m0-1.571H19.216a7.511,7.511,0,0,0-7.4,7.6V91.833a7.511,7.511,0,0,0,7.4,7.6H55.463l13.221,9.055a6.123,6.123,0,0,0,3.47,1.079,6.345,6.345,0,0,0,6.252-6.422V99.434h9.866a7.511,7.511,0,0,0,7.4-7.6V51.3a7.511,7.511,0,0,0-7.4-7.6Z" fill="#0865c2"/>
      </g>
      <g id="Group_307" data-name="Group 307">
        <g id="Group_300" data-name="Group 300">
          <path id="Path_642" data-name="Path 642" d="M42.456,89.8a7.537,7.537,0,0,1-3.109-.652,8.2,8.2,0,0,1-2.518-1.76,8.352,8.352,0,0,1-1.713-2.608,8.21,8.21,0,0,1-.634-3.208v-2.9a1.354,1.354,0,0,0-.429-1.013A1.409,1.409,0,0,0,33,77.223H31.591V70.959H33a1.441,1.441,0,0,0,1.063-.426,1.341,1.341,0,0,0,.421-1.024v-2.86A8.421,8.421,0,0,1,36.829,60.8a8.209,8.209,0,0,1,2.518-1.759,7.516,7.516,0,0,1,3.109-.653v1.571a6.04,6.04,0,0,0-2.495.52,6.678,6.678,0,0,0-2.05,1.431,6.822,6.822,0,0,0-1.9,4.743v2.86a3,3,0,0,1-2.891,3.019v3.127a2.9,2.9,0,0,1,2,.88,2.929,2.929,0,0,1,.892,2.14v2.9a6.612,6.612,0,0,0,.508,2.584,6.79,6.79,0,0,0,1.391,2.121,6.688,6.688,0,0,0,2.051,1.432,6.034,6.034,0,0,0,2.494.52Z" fill="#0865c2"/>
        </g>
        <g id="Group_301" data-name="Group 301">
          <path id="Path_643" data-name="Path 643" d="M65.032,89.8V88.229a6.047,6.047,0,0,0,2.5-.52,6.7,6.7,0,0,0,2.05-1.432,6.8,6.8,0,0,0,1.391-2.121,6.619,6.619,0,0,0,.508-2.585v-2.9a3.03,3.03,0,0,1,2.891-3.02V72.528a3,3,0,0,1-2.891-3.019v-2.86a6.682,6.682,0,0,0-3.95-6.174,6.041,6.041,0,0,0-2.495-.52V58.384a7.522,7.522,0,0,1,3.109.652,8.218,8.218,0,0,1,2.518,1.759,8.416,8.416,0,0,1,2.348,5.855v2.86a1.341,1.341,0,0,0,.421,1.024,1.441,1.441,0,0,0,1.063.426H75.9v6.264H74.49a1.412,1.412,0,0,0-1.056.438,1.357,1.357,0,0,0-.428,1.013v2.9a8.2,8.2,0,0,1-.635,3.208,8.331,8.331,0,0,1-1.713,2.608,8.2,8.2,0,0,1-2.517,1.76A7.543,7.543,0,0,1,65.032,89.8Z" fill="#0865c2"/>
        </g>
        <g id="Group_302" data-name="Group 302">
          <rect id="Rectangle_256" data-name="Rectangle 256" width="15.738" height="1.571" transform="translate(46.418 65.059)" fill="#231f20"/>
        </g>
        <g id="Group_303" data-name="Group 303">
          <rect id="Rectangle_257" data-name="Rectangle 257" width="15.738" height="1.571" transform="translate(46.418 70.557)" fill="#0865c2"/>
        </g>
        <g id="Group_304" data-name="Group 304">
          <rect id="Rectangle_258" data-name="Rectangle 258" width="11.139" height="1.571" transform="translate(51.017 76.055)" fill="#231f20"/>
        </g>
        <g id="Group_305" data-name="Group 305">
          <rect id="Rectangle_259" data-name="Rectangle 259" width="1.529" height="1.571" transform="translate(46.43 76.055)" fill="#231f20"/>
        </g>
        <g id="Group_306" data-name="Group 306">
          <rect id="Rectangle_260" data-name="Rectangle 260" width="15.738" height="1.571" transform="translate(46.418 81.553)" fill="#0865c2"/>
        </g>
      </g>
      <g id="Group_308" data-name="Group 308">
        <rect id="Rectangle_261" data-name="Rectangle 261" width="4.587" height="4.713" transform="translate(12.082 109.29)" fill="#231f20"/>
      </g>
      <g id="Group_309" data-name="Group 309">
        <rect id="Rectangle_262" data-name="Rectangle 262" width="4.587" height="4.713" transform="translate(21.257 109.29)" fill="#0865c2"/>
      </g>
      <g id="Group_310" data-name="Group 310">
        <rect id="Rectangle_263" data-name="Rectangle 263" width="4.587" height="4.713" transform="translate(30.431 109.29)" fill="#231f20"/>
      </g>
      <g id="Group_311" data-name="Group 311">
        <rect id="Rectangle_264" data-name="Rectangle 264" width="4.587" height="4.713" transform="translate(39.606 109.29)" fill="#0865c2"/>
      </g>
      <g id="Group_312" data-name="Group 312">
        <rect id="Rectangle_265" data-name="Rectangle 265" width="31.988" height="1.571" transform="translate(104.714 48.012)" fill="#0865c2"/>
      </g>
      <g id="Group_313" data-name="Group 313">
        <rect id="Rectangle_266" data-name="Rectangle 266" width="26.636" height="1.571" transform="translate(110.066 55.081)" fill="#231f20"/>
      </g>
      <g id="Group_314" data-name="Group 314">
        <rect id="Rectangle_267" data-name="Rectangle 267" width="3.058" height="1.571" transform="translate(104.714 55.081)" fill="#231f20"/>
      </g>
      <g id="Group_315" data-name="Group 315">
        <rect id="Rectangle_268" data-name="Rectangle 268" width="31.988" height="1.571" transform="translate(104.714 62.149)" fill="#231f20"/>
      </g>
      <g id="Group_316" data-name="Group 316">
        <rect id="Rectangle_269" data-name="Rectangle 269" width="26.636" height="1.571" transform="translate(110.066 69.218)" fill="#0865c2"/>
      </g>
      <g id="Group_317" data-name="Group 317">
        <rect id="Rectangle_270" data-name="Rectangle 270" width="3.058" height="1.571" transform="translate(104.714 69.218)" fill="#0865c2"/>
      </g>
      <g id="Group_318" data-name="Group 318">
        <rect id="Rectangle_271" data-name="Rectangle 271" width="31.988" height="1.571" transform="translate(104.714 76.287)" fill="#231f20"/>
      </g>
      <g id="Group_319" data-name="Group 319">
        <rect id="Rectangle_272" data-name="Rectangle 272" width="26.636" height="1.571" transform="translate(110.066 83.356)" fill="#0865c2"/>
      </g>
      <g id="Group_320" data-name="Group 320">
        <rect id="Rectangle_273" data-name="Rectangle 273" width="3.058" height="1.571" transform="translate(104.714 83.356)" fill="#0865c2"/>
      </g>
      <g id="Group_321" data-name="Group 321">
        <path id="Path_644" data-name="Path 644" d="M96.907,122.569a2.554,2.554,0,0,0,1.6-1.51c.126-.329.256-.661.4-.988a2.66,2.66,0,0,0-.093-2.214,7.93,7.93,0,0,1,1.405-9.022l1.736-1.784a7.409,7.409,0,0,1,8.783-1.444,2.581,2.581,0,0,0,1.192.3,2.361,2.361,0,0,0,.961-.2c.318-.141.641-.278.964-.408a2.58,2.58,0,0,0,1.47-1.637,7.6,7.6,0,0,1,7.206-5.364h2.456a7.593,7.593,0,0,1,7.2,5.357,2.574,2.574,0,0,0,1.469,1.642c.323.129.647.266.963.408a2.361,2.361,0,0,0,.963.2,2.578,2.578,0,0,0,1.193-.3,7.381,7.381,0,0,1,7.574.435v-91.1a6.208,6.208,0,0,0-6.116-6.283H10.553a6.209,6.209,0,0,0-6.116,6.283V120.969a6.209,6.209,0,0,0,6.116,6.283H92.172A7.663,7.663,0,0,1,96.907,122.569Z" fill="none"/>
        <path id="Path_645" data-name="Path 645" d="M150.594,122.565a2.556,2.556,0,0,1-1.593-1.5c-.125-.335-.256-.666-.4-1a2.662,2.662,0,0,1,.094-2.213,7.93,7.93,0,0,0-1.406-9.022l-1.416-1.454V109.6l.335.344a6.327,6.327,0,0,1,1.123,7.2,4.276,4.276,0,0,0-.131,3.553c.131.308.254.618.372.934a4.094,4.094,0,0,0,2.541,2.428,6.2,6.2,0,0,1,4.17,5.911v2.524a6.2,6.2,0,0,1-4.159,5.908,4.086,4.086,0,0,0-2.547,2.429c-.118.309-.241.62-.376.936a4.268,4.268,0,0,0,.132,3.549,6.327,6.327,0,0,1-1.122,7.2l-1.74,1.784a5.915,5.915,0,0,1-7.005,1.155,4.086,4.086,0,0,0-1.888-.472,3.814,3.814,0,0,0-1.574.336c-.3.135-.6.261-.909.382a4.11,4.11,0,0,0-2.364,2.611,6.06,6.06,0,0,1-5.752,4.283h-2.456a6.059,6.059,0,0,1-5.75-4.273,4.106,4.106,0,0,0-2.365-2.616c-.3-.122-.6-.247-.907-.385a3.811,3.811,0,0,0-1.573-.336,4.1,4.1,0,0,0-1.885.469,5.916,5.916,0,0,1-7.012-1.151l-1.738-1.788a6.329,6.329,0,0,1-1.122-7.2,4.273,4.273,0,0,0,.13-3.553c-.132-.308-.253-.618-.372-.933a4.092,4.092,0,0,0-2.541-2.429,6.194,6.194,0,0,1-4.169-5.908v-2.524a6.378,6.378,0,0,1,.113-1.145H91.778a8.1,8.1,0,0,0-.085,1.145v2.524a7.759,7.759,0,0,0,5.221,7.4,2.552,2.552,0,0,1,1.593,1.5c.126.335.257.666.4,1a2.667,2.667,0,0,1-.094,2.212,7.929,7.929,0,0,0,1.406,9.022l1.736,1.786a7.414,7.414,0,0,0,8.782,1.444,2.587,2.587,0,0,1,1.2-.3,2.333,2.333,0,0,1,.959.2c.318.145.641.279.962.408a2.567,2.567,0,0,1,1.47,1.642,7.593,7.593,0,0,0,7.2,5.356h2.456a7.59,7.59,0,0,0,7.2-5.364,2.571,2.571,0,0,1,1.465-1.637c.326-.129.648-.263.969-.408a2.341,2.341,0,0,1,.96-.2,2.576,2.576,0,0,1,1.193.3,7.412,7.412,0,0,0,8.782-1.444l1.739-1.784a7.929,7.929,0,0,0,1.406-9.022,2.662,2.662,0,0,1-.094-2.215c.141-.327.271-.658.4-.988a2.551,2.551,0,0,1,1.6-1.51,7.762,7.762,0,0,0,5.213-7.4v-2.524A7.766,7.766,0,0,0,150.594,122.565Z" fill="#0865c2"/>
        <path id="Path_646" data-name="Path 646" d="M138.231,7.084H10.553a7.752,7.752,0,0,0-7.645,7.854V120.969a7.752,7.752,0,0,0,7.645,7.854H93.335a6.355,6.355,0,0,1,.5-1.571,6.091,6.091,0,0,1,3.546-3.191,4.09,4.09,0,0,0,2.547-2.429c.118-.309.24-.62.376-.936a4.265,4.265,0,0,0-.132-3.549,6.328,6.328,0,0,1,1.123-7.2l1.736-1.784a5.911,5.911,0,0,1,7.009-1.153,4.1,4.1,0,0,0,1.884.468,3.841,3.841,0,0,0,1.57-.332c.3-.134.606-.263.911-.385a4.124,4.124,0,0,0,2.367-2.61,6.067,6.067,0,0,1,5.754-4.284h2.456a6.061,6.061,0,0,1,5.751,4.273,4.115,4.115,0,0,0,2.369,2.618q.455.181.909.386a3.839,3.839,0,0,0,1.57.332,4.086,4.086,0,0,0,1.883-.469,5.9,5.9,0,0,1,6.883,1.034c.042.041.086.077.128.119l1.4,1.44V14.938A7.752,7.752,0,0,0,138.231,7.084Zm1.966,97.678a7.409,7.409,0,0,0-3.424.842,2.578,2.578,0,0,1-1.193.3,2.361,2.361,0,0,1-.963-.2c-.316-.141-.639-.279-.963-.408a2.574,2.574,0,0,1-1.469-1.642,7.593,7.593,0,0,0-7.2-5.357h-2.456a7.6,7.6,0,0,0-7.206,5.364,2.58,2.58,0,0,1-1.47,1.637c-.323.13-.646.266-.964.408a2.361,2.361,0,0,1-.961.2,2.581,2.581,0,0,1-1.192-.3,7.409,7.409,0,0,0-8.783,1.444l-1.736,1.784a7.93,7.93,0,0,0-1.405,9.022,2.66,2.66,0,0,1,.093,2.214c-.141.327-.271.659-.4.988a2.554,2.554,0,0,1-1.6,1.51,7.663,7.663,0,0,0-4.735,4.684H10.553a6.209,6.209,0,0,1-6.116-6.283V14.938a6.209,6.209,0,0,1,6.116-6.283H138.231a6.208,6.208,0,0,1,6.116,6.283v91.1A7.412,7.412,0,0,0,140.2,104.762Z" fill="#0865c2"/>
      </g>
      <g id="Group_322" data-name="Group 322">
        <path id="Path_647" data-name="Path 647" d="M120.524,148.7l-1.469-.437,9.718-34.5,1.469.437Zm14.586-5.445-1.045-1.146,10.289-9.909a1.08,1.08,0,0,0,.085-.088.653.653,0,0,0-.073-.077l-10.3-9.92,1.045-1.146,10.289,9.909a1.574,1.574,0,0,1-.011,2.479Zm-20.272,0-10.289-9.909a1.57,1.57,0,0,1,.011-2.478l10.278-9.9,1.045,1.146-10.289,9.909a.954.954,0,0,0-.085.089.724.724,0,0,0,.073.076l10.3,9.92Z" fill="#231f20"/>
      </g>
    </g>
  </g>
</svg>
