<svg id="Invision_copy" data-name="Invision copy" xmlns="http://www.w3.org/2000/svg" width="70" height="70" viewBox="0 0 70 70">
  <path id="Path_604" data-name="Path 604" d="M63.654,0H6.346A6.346,6.346,0,0,0,0,6.346V63.654A6.346,6.346,0,0,0,6.346,70H63.654A6.346,6.346,0,0,0,70,63.654V6.346A6.346,6.346,0,0,0,63.654,0" fill="#dc395f"/>
  <path id="Path_605" data-name="Path 605" d="M23.394,22.024a4.214,4.214,0,1,0-4.276-4.214,4.227,4.227,0,0,0,4.276,4.214M14.527,44.588a14.472,14.472,0,0,0-.377,3.165c0,3.711,2.012,6.174,6.289,6.174,3.546,0,6.422-2.106,8.492-5.507l-1.264,5.073h7.042L38.734,37.35c1.006-4.087,2.956-6.209,5.911-6.209a3.519,3.519,0,0,1,3.773,3.836,7.532,7.532,0,0,1-.314,2.264l-2.075,7.42a11.154,11.154,0,0,0-.44,3.144c0,3.523,2.075,6.1,6.414,6.1,3.71,0,6.666-2.388,8.3-8.111l-2.767-1.068c-1.384,3.834-2.579,4.527-3.522,4.527s-1.446-.628-1.446-1.885a8.342,8.342,0,0,1,.314-1.95L54.9,38.188a15.944,15.944,0,0,0,.692-4.586c0-5.408-3.27-8.23-7.232-8.23-3.71,0-7.483,3.347-9.37,6.869l1.383-6.322H29.616l-1.509,5.568h5.031l-3.1,12.4c-2.433,5.408-6.9,5.5-7.462,5.37-.921-.208-1.51-.558-1.51-1.754a11.858,11.858,0,0,1,.44-2.878l4.717-18.71H14.276l-1.509,5.568h4.968l-3.207,13.1" fill="#fff"/>
</svg>
