<svg id="Vector_Smart_Object1" data-name="Vector Smart Object1" xmlns="http://www.w3.org/2000/svg" width="150" height="150" viewBox="0 0 150 150">
  <g id="Stroke">
    <g id="Group_323" data-name="Group 323">
      <rect id="Rectangle_274" data-name="Rectangle 274" width="3.001" height="3" transform="translate(63.849 10.597)" fill="#231f20"/>
    </g>
    <g id="Group_324" data-name="Group 324">
      <rect id="Rectangle_275" data-name="Rectangle 275" width="14.522" height="1.5" transform="translate(72.61 11.347)" fill="#231f20"/>
    </g>
    <g id="Group_325" data-name="Group 325">
      <path id="Path_648" data-name="Path 648" d="M49.826,127.307a3.318,3.318,0,0,1,2.362.979l4.781,4.779-4.781,4.78a3.321,3.321,0,0,1-2.362.979H48.407a3.344,3.344,0,0,1-3.341-3.339v-4.838a3.344,3.344,0,0,1,3.341-3.339h1.418m0-1.5H48.407a4.845,4.845,0,0,0-4.841,4.839v4.838a4.845,4.845,0,0,0,4.841,4.839h1.418a4.808,4.808,0,0,0,3.422-1.418l5.843-5.84-5.843-5.84a4.81,4.81,0,0,0-3.422-1.417Z" fill="#0865c2"/>
    </g>
    <g id="Group_326" data-name="Group 326">
      <path id="Path_649" data-name="Path 649" d="M77.451,127.307a3.344,3.344,0,0,1,3.341,3.339v4.838a3.344,3.344,0,0,1-3.341,3.339h-4.84a3.343,3.343,0,0,1-3.34-3.339v-4.838a3.343,3.343,0,0,1,3.34-3.339h4.84m0-1.5h-4.84a4.844,4.844,0,0,0-4.84,4.839v4.838a4.844,4.844,0,0,0,4.84,4.839h4.84a4.845,4.845,0,0,0,4.841-4.839v-4.838a4.845,4.845,0,0,0-4.841-4.839Z" fill="#1c2530"/>
    </g>
    <g id="Group_327" data-name="Group 327">
      <path id="Path_650" data-name="Path 650" d="M101.655,127.307a3.343,3.343,0,0,1,3.34,3.339v4.838a3.343,3.343,0,0,1-3.34,3.339h-1.418a3.321,3.321,0,0,1-2.363-.979l-4.781-4.78,4.781-4.779a3.319,3.319,0,0,1,2.363-.979h1.418m0-1.5h-1.418a4.81,4.81,0,0,0-3.423,1.417l-5.842,5.84,5.842,5.84a4.808,4.808,0,0,0,3.423,1.418h1.418a4.845,4.845,0,0,0,4.84-4.839v-4.838a4.844,4.844,0,0,0-4.84-4.839Z" fill="#0865c2"/>
    </g>
    <g id="Group_328" data-name="Group 328">
      <path id="Path_651" data-name="Path 651" d="M113,78.978A12.024,12.024,0,1,1,129.006,79a21.717,21.717,0,0,1,13.23,15.854,27.485,27.485,0,1,0-42.513-.1A21.718,21.718,0,0,1,113,78.978Z" fill="none"/>
      <path id="Path_652" data-name="Path 652" d="M121.018,104.89A27.408,27.408,0,0,0,140.956,96.3a20.239,20.239,0,0,0-13.35-16.209,12,12,0,0,1-13.212-.021A20.241,20.241,0,0,0,101,96.208,27.409,27.409,0,0,0,121.018,104.89Z" fill="none"/>
    </g>
    <g id="Group_331" data-name="Group 331">
      <path id="Path_653" data-name="Path 653" d="M110.586,20.105H39.475v18.6h5.972l1.726,6.779c.775.287,1.547.612,2.314.968l6.027-3.581L68.443,55.8l-3.582,6.022c.358.767.68,1.541.968,2.313l6.782,1.725V84.138l-6.779,1.725c-.288.774-.613,1.546-.968,2.313L68.445,94.2,55.516,107.124l-6.027-3.58c-.767.358-1.541.68-2.314.967l-1.726,6.779H39.475v8.927h71.111" fill="none"/>
      <g id="Group_329" data-name="Group 329">
        <path id="Path_654" data-name="Path 654" d="M112.086,78.063v1.31c.3-.136.6-.272.914-.4A12.377,12.377,0,0,1,112.086,78.063Z" fill="none"/>
        <path id="Path_655" data-name="Path 655" d="M110.586,64.076a12.055,12.055,0,0,1,1.5-2.065" fill="#231f20"/>
        <path id="Path_656" data-name="Path 656" d="M112.086,51.446c-.506.175-1.007.361-1.5.564" fill="#231f20"/>
        <path id="Path_657" data-name="Path 657" d="M121.018,48.449V12a12,12,0,0,0-12-12H41.045a12,12,0,0,0-12,12V38.71h1.5V12a10.512,10.512,0,0,1,10.5-10.5h67.973a10.512,10.512,0,0,1,10.5,10.5V48.487a28.913,28.913,0,0,0-7.432,1.37V18.605H37.975v20.1h1.5v-18.6h71.111V50.39a28.959,28.959,0,0,0-11.17,46.338q.668.746,1.388,1.443a29.032,29.032,0,0,0,9.782,6.274v15.773H39.475V111.29h-1.5v10.427h74.111V104.978a28.877,28.877,0,0,0,7.432,1.373V138a10.512,10.512,0,0,1-10.5,10.5H41.045a10.512,10.512,0,0,1-10.5-10.5V111.29h-1.5V138a12,12,0,0,0,12,12h67.973a12,12,0,0,0,12-12V106.39a28.884,28.884,0,0,0,20.121-8.13c.481-.464.95-.94,1.4-1.436a28.966,28.966,0,0,0-21.518-48.375Zm0,56.441h0q-.755,0-1.5-.041a27.27,27.27,0,0,1-7.432-1.459q-.76-.262-1.5-.568A27.631,27.631,0,0,1,101,96.208a20.214,20.214,0,0,1,9.591-14.359c.487-.293.989-.561,1.5-.813a20.057,20.057,0,0,1,2.309-.97,12.226,12.226,0,0,0,6.623,1.992h0a11.963,11.963,0,0,0,6.589-1.971A20.239,20.239,0,0,1,140.956,96.3,27.408,27.408,0,0,1,121.018,104.89Zm-8.932-29.328a10.4,10.4,0,0,1-1.5-4.166,10.6,10.6,0,0,1,10.432-11.876h0a10.519,10.519,0,0,1,0,21.038h0a10.29,10.29,0,0,1-1.5-.121,10.442,10.442,0,0,1-4.864-2.039A10.653,10.653,0,0,1,112.086,75.562Zm30.15,19.3A21.717,21.717,0,0,0,129.006,79a12.006,12.006,0,0,0-7.988-20.985h0a12.043,12.043,0,0,0-12.025,12.02,11.894,11.894,0,0,0,1.593,5.951,12.113,12.113,0,0,0,1.5,2.073,12.377,12.377,0,0,0,.914.915c-.31.123-.612.26-.914.4-.509.229-1.012.471-1.5.737a21.7,21.7,0,0,0-10.863,14.65A27.435,27.435,0,0,1,110.586,52.01c.493-.2.994-.389,1.5-.564a27.323,27.323,0,0,1,7.432-1.455c.5-.027,1-.043,1.5-.043h0a27.454,27.454,0,0,1,21.218,44.91Z" fill="#0865c2"/>
      </g>
      <path id="Path_658" data-name="Path 658" d="M45.719,45.859l.194.762.737.274c.721.268,1.463.579,2.206.923l.717.333.68-.4,5.024-2.985,11.28,11.275-2.986,5.019-.406.682.336.719c.329.706.64,1.447.922,2.2l.274.736.761.193,5.651,1.438V82.972L65.462,84.41,64.7,84.6l-.274.737c-.268.721-.578,1.463-.923,2.2l-.333.718.4.68,2.986,5.021L55.28,105.239l-5.024-2.985-.682-.406-.719.336c-.706.329-1.447.64-2.2.921l-.736.274-.194.761-1.439,5.649H39.475v1.5h5.974l1.726-6.779c.772-.287,1.546-.609,2.314-.967l6.027,3.58L68.445,94.2l-3.582-6.024c.355-.767.68-1.539.968-2.313l6.779-1.725V65.86l-6.782-1.725c-.288-.772-.611-1.546-.968-2.313L68.443,55.8,55.513,42.876l-6.027,3.581c-.767-.356-1.539-.68-2.314-.968L45.447,38.71H39.475v1.5h4.805Z" fill="#0865c2"/>
      <rect id="Rectangle_276" data-name="Rectangle 276" width="7.432" height="1.5" transform="translate(30.544 38.71)" fill="#0865c2"/>
      <rect id="Rectangle_277" data-name="Rectangle 277" width="7.432" height="1.5" transform="translate(30.544 109.79)" fill="#0865c2"/>
      <path id="Path_659" data-name="Path 659" d="M28.33,109.79l-1.438-5.647-.194-.762-.737-.274c-.721-.268-1.463-.578-2.206-.923l-.717-.333-.68.4-5.024,2.985L6.053,93.966l2.986-5.021.406-.682-.336-.719c-.329-.706-.64-1.447-.922-2.2l-.274-.736-.761-.193L1.5,82.974V67.028l5.65-1.439.76-.193.274-.736c.273-.73.583-1.473.923-2.206l.333-.719-.4-.68L6.051,56.036l11.28-11.275,5.024,2.985.682.4.719-.335c.706-.329,1.448-.64,2.2-.921l.736-.275.193-.761,1.438-5.649h.717v-1.5H27.161l-1.726,6.779c-.772.287-1.547.609-2.314.968l-6.027-3.581L4.165,55.8l3.582,6.022c-.355.767-.68,1.541-.968,2.313L0,65.862V84.14l6.781,1.725c.288.772.611,1.546.968,2.313L4.168,94.2,17.1,107.127l6.026-3.581q1.151.534,2.314.968l1.726,6.776h1.881v-1.5Z" fill="#0865c2"/>
      <rect id="Rectangle_278" data-name="Rectangle 278" width="1.5" height="1.5" transform="translate(29.044 109.79)" fill="#231f20"/>
      <rect id="Rectangle_279" data-name="Rectangle 279" width="1.5" height="1.5" transform="translate(29.044 38.71)" fill="#231f20"/>
      <path id="Path_660" data-name="Path 660" d="M29.045,92.942v1.607c.49.183.992.344,1.5.491V93.484C30.034,93.325,29.535,93.141,29.045,92.942Z" fill="#231f20"/>
      <path id="Path_661" data-name="Path 661" d="M39.475,94.092q-.74.123-1.5.187v1.5c.5-.04,1.007-.092,1.5-.167Z" fill="#231f20"/>
      <g id="Group_330" data-name="Group 330">
        <path id="Path_662" data-name="Path 662" d="M39.475,54.385c-.493-.076-1-.127-1.5-.167-.551-.044-1.108-.073-1.67-.073a20.809,20.809,0,0,0-5.761.814c-.508.146-1.01.308-1.5.491a20.85,20.85,0,0,0,0,39.1V92.942a19.351,19.351,0,0,1,0-35.884c.49-.2.989-.383,1.5-.542a19.356,19.356,0,0,1,5.761-.871c.563,0,1.12.029,1.67.076q.759.065,1.5.187a19.352,19.352,0,0,1,0,38.184v1.522a20.856,20.856,0,0,0,0-41.229Z" fill="#231f20"/>
        <path id="Path_663" data-name="Path 663" d="M30.545,93.484V95.04a20.809,20.809,0,0,0,5.761.814c.563,0,1.119-.029,1.67-.073v-1.5c-.55.047-1.107.076-1.67.076A19.356,19.356,0,0,1,30.545,93.484Z" fill="#231f20"/>
      </g>
      <rect id="Rectangle_280" data-name="Rectangle 280" width="1.5" height="1.5" transform="translate(37.976 38.71)" fill="#231f20"/>
      <rect id="Rectangle_281" data-name="Rectangle 281" width="1.5" height="1.5" transform="translate(37.976 109.79)" fill="#231f20"/>
    </g>
    <g id="Group_332" data-name="Group 332">
      <path id="Path_664" data-name="Path 664" d="M36.305,64.4A10.6,10.6,0,1,1,25.7,75a10.612,10.612,0,0,1,10.6-10.6m0-1.5A12.1,12.1,0,1,0,48.407,75a12.1,12.1,0,0,0-12.1-12.1Z" fill="#1c2530"/>
    </g>
    <g id="Group_333" data-name="Group 333">
      <path id="Path_665" data-name="Path 665" d="M74.171,29.965,101.3,43.549,74.171,57.131V29.965m-1.5-2.429V59.56l31.975-16.011L72.671,27.537Z" fill="#1c2530"/>
    </g>
  </g>
</svg>
