<svg xmlns="http://www.w3.org/2000/svg" xmlns:xlink="http://www.w3.org/1999/xlink" width="70" height="69" viewBox="0 0 70 69">
  <defs>
    <clipPath id="clip-path">
      <rect id="crop" width="70" height="69" transform="translate(0 3.918)" fill="none"/>
    </clipPath>
    <radialGradient id="radial-gradient" cx="0.376" cy="0.339" r="0" gradientUnits="objectBoundingBox">
      <stop offset="0" stop-color="#34364e" stop-opacity="0.98"/>
      <stop offset="1" stop-color="#0c0824"/>
    </radialGradient>
  </defs>
  <g id="Photoshop_copy" data-name="Photoshop copy" transform="translate(0 -3.918)" clip-path="url(#clip-path)">
    <path id="Path_592" data-name="Path 592" d="M2.917,7.033H67.083V73.705H2.917Z" fill="url(#radial-gradient)"/>
    <path id="Path_593" data-name="Path 593" d="M2.917,7.033H67.083V73.705H2.917ZM0,76.821H70V3.918H0ZM47.192,33.827c-2.3,0-3.092,1.246-3.092,2.274,0,1.122.525,1.9,3.617,3.614,4.579,2.368,6.008,4.642,6.008,7.976,0,4.985-3.558,7.664-8.371,7.664a12.019,12.019,0,0,1-5.979-1.34c-.2-.093-.233-.249-.233-.5v-4.58c0-.312.146-.405.35-.249a10.326,10.326,0,0,0,5.862,1.838c2.3,0,3.267-1.028,3.267-2.43,0-1.122-.671-2.119-3.617-3.739-4.142-2.119-5.862-4.268-5.862-7.851,0-4.019,2.946-7.353,8.05-7.353a12.647,12.647,0,0,1,5.221.872.707.707,0,0,1,.292.623v4.268c0,.249-.146.405-.438.312a9.371,9.371,0,0,0-5.075-1.4ZM22.108,37.534c.671.062,1.2.062,2.363.062,3.413,0,6.621-1.277,6.621-6.231,0-3.957-2.3-5.951-6.183-5.951-1.167,0-2.275.062-2.8.093ZM16.917,20.991c0-.218.408-.374.642-.374,1.867-.093,4.638-.156,7.525-.156,8.079,0,11.229,4.736,11.229,10.78,0,7.913-5.367,11.309-11.958,11.309-1.108,0-1.487-.062-2.275-.062V54.452c0,.249-.087.374-.35.374H17.267c-.233,0-.35-.093-.35-.374V20.991Z" fill="#31c5f0"/>
  </g>
</svg>
