<svg id="XD_copy" data-name="XD copy" xmlns="http://www.w3.org/2000/svg" width="70" height="68" viewBox="0 0 70 68">
  <path id="Path_596" data-name="Path 596" d="M57.6,68H12.4A12.362,12.362,0,0,1,0,55.65V12.35A12.362,12.362,0,0,1,12.4,0H57.6A12.362,12.362,0,0,1,70,12.35v43.3A12.362,12.362,0,0,1,57.6,68Z" fill="#ff26be"/>
  <path id="Path_597" data-name="Path 597" d="M56.5,65.093H13.5A10.586,10.586,0,0,1,2.918,54.545V13.455A10.586,10.586,0,0,1,13.5,2.907H56.468A10.566,10.566,0,0,1,67.054,13.455V54.517A10.55,10.55,0,0,1,56.5,65.093Z" fill="#2e001f"/>
  <path id="Path_598" data-name="Path 598" d="M27.678,31.82l8.168,15.634c.146.232.059.466-.176.466H30.593a.572.572,0,0,1-.613-.377c-1.868-3.836-3.763-7.672-5.718-11.8H24.2c-1.75,3.894-3.676,7.993-5.541,11.829a.563.563,0,0,1-.526.321H13.328c-.291,0-.322-.232-.174-.407l7.991-15.171L13.418,16.973a.235.235,0,0,1,.174-.407h5.018c.291,0,.409.059.524.321,1.837,3.836,3.7,7.789,5.454,11.653h.059c1.691-3.836,3.559-7.817,5.368-11.625.146-.232.232-.377.526-.377h4.7c.232,0,.322.176.176.407Zm9.6,4.737c0-6.771,4.522-12.06,11.7-12.06a12.9,12.9,0,0,1,1.518.059v-7.7a.29.29,0,0,1,.291-.29H55.39c.232,0,.291.086.291.232V43.475a20.679,20.679,0,0,0,.146,2.848c0,.176-.059.232-.232.321a17.417,17.417,0,0,1-7.468,1.685c-6.331.025-10.853-3.867-10.85-11.773Zm13.21-7.437a4.4,4.4,0,0,0-1.691-.29c-3.676,0-6.241,2.818-6.241,7.5,0,5.348,2.626,7.5,5.922,7.5a5.486,5.486,0,0,0,2.013-.321V29.119Z" fill="#ffd9f2"/>
</svg>
